<svg xmlns="http://www.w3.org/2000/svg" xmlns:xlink="http://www.w3.org/1999/xlink" version="1.1" x="0px" y="0px" viewBox="10 0 82 100"
     style="enable-background:new 0 0 100 100; fill:orange" xml:space="preserve">
    <path d="M54.6,71.7l6.8-13.2c0,0-1,27.1,6.4,39.1l-25.2-0.1c0,0,9.8-10.6,6.3-25.8L54.6,71.7z"/>
    <path d="M48.3,65.5c0,0-9.4,2.5-16.2-4.6c-5-5.4-4.7-13.3-5.6-17c-0.7-4.4-1.2-5.9-3.5-11.4c0,0,17.1,1.9,23.8,10.9  c4.1,5.6,4.8,16.4,3.5,20.6c-3.8-1.7-6.3-4.1-9-7.4c-2.5-3.9-2.5-5.3-5.1-10.3c0,0,0.6,8.1,4.2,13.3C42.4,62.5,48.3,65.5,48.3,65.5z  "/>
    <path d="M56.4,53.6c0,0,9.9,2.5,17.1-4.6c5.3-5.4,5.1-13.3,6-17c0.8-4.4,1.3-5.9,3.7-11.4c0,0-18.1,1.8-25.1,10.8  C53.8,37,53,47.8,54.4,52.1c4-1.7,6.7-4,9.5-7.4c2.7-3.9,2.6-5.3,5.4-10.3c0,0-0.6,8.1-4.4,13.3C62.6,50.6,56.4,53.6,56.4,53.6z"/>
    <path d="M70.6,60.6c0,0,2.6,3.1,6.4,2.7c2.9-0.4,4.6-2.8,5.8-3.7c1.2-1.1,1.7-1.5,3.8-2.6c0,0-6.1-3.8-10.4-2.7  c-2.6,0.6-5.4,3.7-5.9,5.4c1.6,0.4,3,0.4,4.7,0c1.7-0.5,2-1,4.1-1.8c0,0-2,2.3-4.4,3C73.2,61.2,70.6,60.6,70.6,60.6z"/>
    <path d="M80.6,46.9c0,0,2.3,1.3,4.5,0.2c1.7-0.9,2.2-2.8,2.7-3.6c0.5-1,0.7-1.3,1.7-2.4c0,0-4.6-0.9-6.9,0.7  c-1.5,1-2.4,3.5-2.4,4.6c1.1-0.1,1.9-0.5,2.9-1c0.9-0.7,1-1.1,2.1-2c0,0-0.7,1.9-2,2.8C82.3,46.7,80.6,46.9,80.6,46.9z"/>
    <path d="M71.3,17.9c0,0,2.4,1.4,4.8,0.1c1.8-1,2.3-3,2.9-3.9c0.5-1.1,0.8-1.4,1.9-2.7c0,0-4.8-0.9-7.3,0.9  c-1.6,1.1-2.6,3.8-2.6,5c1.2-0.1,2-0.5,3-1.2c1-0.8,1.1-1.2,2.2-2.2c0,0-0.8,2-2.2,3.1C73.1,17.6,71.3,17.9,71.3,17.9z"/>
    <path d="M56.7,23.7c0,0,5.4,1.1,9.1-2.7c2.8-2.9,2.5-7.1,2.9-9.1c0.4-2.3,0.6-3.1,1.8-6.1c0,0-9.6,1.3-13.2,6.2  c-2.2,3-2.4,8.7-1.6,10.9c2.1-1,3.5-2.2,5-4.1c1.3-2.1,1.3-2.8,2.7-5.5c0,0-0.2,4.3-2.1,7.1C59.9,22,56.7,23.7,56.7,23.7z"/>
    <path d="M51.2,13.4c0,0,2.6-1.2,2.9-4c0.2-2.1-1.2-3.7-1.6-4.7c-0.6-1.1-0.7-1.5-1.2-3.1c0,0-3.6,3.6-3.6,6.8  c0,2,1.7,4.4,2.8,5.1c0.6-1.1,0.8-2,0.8-3.3c-0.1-1.3-0.3-1.6-0.6-3.2c0,0,1.3,1.8,1.3,3.6C52,11.7,51.2,13.4,51.2,13.4z"/>
    <path d="M48.9,35.3c0,0-7.8,0.1-12.1-5.8c-3.2-4.5-1.9-9.8-2-12.4c0-3.1-0.1-4.2-1.2-8.3c0,0,13.2,4,17.2,11.3  c2.4,4.4,1.5,11.9-0.1,14.5c-2.7-1.8-4.4-3.8-6.1-6.5c-1.4-3-1.2-4-2.6-7.8c0,0-0.7,5.6,1.4,9.7C44.7,32.3,48.9,35.3,48.9,35.3z"/>
    <path d="M29.6,26.4c0,0-4.6,0.1-7.1-3.4c-1.9-2.6-1.1-5.8-1.2-7.3c0-1.8-0.1-2.5-0.7-4.9c0,0,7.8,2.4,10.1,6.6  c1.4,2.6,0.9,7-0.1,8.6c-1.6-1-2.6-2.2-3.6-3.8c-0.8-1.8-0.7-2.3-1.5-4.6c0,0-0.4,3.3,0.8,5.7C27.1,24.6,29.6,26.4,29.6,26.4z"/>
    <path d="M21.6,44.5c0,0-2.4,1.6-5,0.7c-1.9-0.7-2.6-2.7-3.2-3.5c-0.6-1-0.9-1.3-2.1-2.4c0,0,5-1.4,7.7,0  c1.7,0.9,2.9,3.4,2.9,4.6c-1.2,0-2.1-0.3-3.2-0.8c-1.1-0.7-1.2-1-2.4-1.9c0,0,0.9,1.9,2.4,2.8C19.7,44.4,21.6,44.5,21.6,44.5z"/>
    <path d="M37.9,62.7c0,0-4.1,4-9.5,2.7c-4-1-6-4.7-7.5-6.1c-1.6-1.8-2.2-2.3-4.9-4.2c0,0,9.2-4.3,15.1-2.1  c3.6,1.3,6.9,6.1,7.3,8.4c-2.4,0.4-4.3,0-6.6-0.7c-2.3-1-2.7-1.7-5.4-3.2c0,0,2.5,3.5,5.7,4.9C34.1,63.1,37.9,62.7,37.9,62.7z"/>
</svg>